<?xml version="1.0" encoding="utf-8"?>
<!-- Generator: Adobe Illustrator 26.0.3, SVG Export Plug-In . SVG Version: 6.00 Build 0)  -->
<svg version="1.1" id="Layer_1" xmlns="http://www.w3.org/2000/svg" xmlns:xlink="http://www.w3.org/1999/xlink" x="0px" y="0px"
	 viewBox="0 0 5000 5000" style="enable-background:new 0 0 5000 5000;" xml:space="preserve">
<style type="text/css">
	.st0{fill:#FEFEFE;}
	.st1{fill:#0071C5;}
	.st2{fill:#00A0D4;}
	.st3{fill:#060406;}
	.st4{fill:#010203;}
	.st5{fill:#1E91FC;}
	.st6{fill:#FDDC05;}
	.st7{fill:#FCDC06;}
	.st8{fill:#000102;}
	.st9{fill:#2591FD;}
	.st10{fill:#F30508;}
	.st11{fill:#047D07;}
	.st12{fill:#010509;}
	.st13{fill:#047D09;}
	.st14{fill:#02070D;}
	.st15{fill:#02070C;}
	.st16{fill:#02060B;}
	.st17{fill:#02080F;}
	.st18{fill:#02080E;}
	.st19{fill:#02060A;}
	.st20{fill:#030A11;}
	.st21{fill:#020910;}
	.st22{fill:#2F5665;}
	.st23{fill:#2F535F;}
	.st24{fill:#020A11;}
	.st25{fill:#030E19;}
	.st26{fill:#248AE1;}
	.st27{fill:#BEC53F;}
	.st28{fill:#C2C73C;}
	.st29{fill:#B2C248;}
	.st30{fill:#C4CB2C;}
	.st31{fill:#C3C835;}
	.st32{fill:#156DBB;}
	.st33{fill:#B9C242;}
	.st34{fill:#1164AC;}
	.st35{fill:#1377CC;}
	.st36{fill:#C0C72F;}
	.st37{fill:#87B574;}
	.st38{fill:#6BA9A7;}
	.st39{fill:#1260A6;}
	.st40{fill:#1463AB;}
	.st41{fill:#C4BF3D;}
	.st42{fill:#B8BC55;}
	.st43{fill:#1064AE;}
	.st44{fill:#5FA695;}
	.st45{fill:#72B16F;}
	.st46{fill:#8BB66D;}
	.st47{fill:#105B9C;}
	.st48{fill:#0A497F;}
	.st49{fill:#1475C9;}
	.st50{fill:#1B7DD5;}
	.st51{fill:#1C7CD2;}
	.st52{fill:#2380D5;}
	.st53{fill:#1E5E97;}
	.st54{fill:#1C7ED7;}
	.st55{fill:#ADBD56;}
</style>
<g>
	<path class="st0" d="M4854.22,4815.48c-1569.36,0-3138.87,0-4708.44,0c0-1569.38,0-3138.77,0-4708.44
		c1569.27,0,3138.59,0,4708.44,0C4854.22,1676.33,4854.22,3245.9,4854.22,4815.48z"/>
	<path class="st1" d="M842.26,4008.03c-6.27-1.73-8.46-5.76-11.31-8.88c-259.17-283.86-437.23-611.5-531.5-984.41
		c-20.46-80.92-36.13-162.76-47.37-245.41c-7.94-58.41-13.32-117.08-16.84-175.97c-4.42-73.99-4.1-148-2.08-221.98
		c1.58-57.65,6.75-115.14,13.29-172.51c16.11-141.18,45.14-279.61,87.64-415.15c99.45-317.14,260.48-599.36,483.45-845.78
		c245.97-271.82,540.61-472.99,883.31-603.47c122.14-46.51,247.6-81.53,375.96-105.97c65.3-12.43,131.1-21.54,197.26-28.44
		c106.93-11.15,214.09-13.38,321.39-9.72c57.03,1.94,113.93,6.54,170.64,13.32c44.22,5.29,88.29,11.37,132.12,19.24
		c1.85,0.33,3.74,0.45,5.58,0.84c6.46,1.37,7.63,2.51,8.02,8.42c0.25,3.75,0.14,7.52,0.14,11.29c0.01,190.71,0,381.41,0,572.12
		c0,4.97,0,9.93,0,13.93c-4.59,4.22-8.11,1.71-11.52,0.94c-40.97-9.26-82.01-18.1-123.53-24.68c-37.79-5.99-75.69-10.82-113.77-14.6
		c-71.93-7.13-144-8.64-216.16-6.55c-55.82,1.61-111.38,6.58-166.79,13.78c-122.38,15.9-241.39,45.4-357.02,88.24
		c-209.65,77.66-396.69,192.45-560.24,344.88c-222.43,207.3-378.03,456.61-466.47,747.58c-23,75.66-39.65,152.78-51.51,231.02
		c-16.42,108.29-21.38,217.14-17.02,326.42c1.95,48.86,5.98,97.63,12.98,146.1c2.06,14.26,2.94,28.65,2.94,43.13
		c-0.1,420.3-0.07,840.61-0.14,1260.91C843.73,3993.47,844.89,4000.42,842.26,4008.03z"/>
	<path class="st1" d="M4165.98,915.51c9.21,4.72,13,10.62,17.51,15.57c94.95,104.1,179.51,216.05,253.61,335.89
		c131.04,211.94,224.56,439.35,280.75,682.06c17.12,73.93,30.36,148.58,39.66,223.94c7.38,59.77,12.44,119.7,15.55,179.86
		c3.3,63.98,3.71,127.94,1.26,191.88c-3.29,85.88-10.96,171.4-24.04,256.43c-67.36,437.87-246.88,823.81-538.01,1157.35
		c-222.03,254.37-488.69,448.87-797.69,584.97c-153.18,67.47-312.14,116.73-476.54,148.49c-75.18,14.52-150.87,25.29-227.07,32.39
		c-100.71,9.39-201.68,11.3-302.69,7.33c-95.34-3.74-190.1-13.88-284.23-29.58c-4.95-0.82-9.87-1.82-14.77-2.9
		c-6.98-1.54-7.78-2.49-8.12-10.19c-0.22-5.01-0.11-10.04-0.11-15.05c0-186.31-0.01-372.63,0.02-558.94
		c0-6.26,0.11-12.53,0.59-18.77c0.2-2.65,2.27-4.46,5.17-4.13c3.73,0.42,7.48,0.96,11.12,1.85
		c57.94,14.09,116.61,24.28,175.73,31.65c36.08,4.5,72.34,7.43,108.66,9.79c50.79,3.3,101.57,3.54,152.36,2.24
		c66.51-1.71,132.65-7.91,198.5-17.61c110.17-16.22,217.57-43.31,322.13-81.39c199.06-72.51,378.14-178.89,536.97-319.12
		c173.48-153.15,309.93-334.32,408.95-543.47c63.65-134.44,108.43-274.98,133.95-421.61c11.62-66.79,19.02-133.99,23-201.68
		c4.24-72.18,3.01-144.23-1.91-216.24c-2.05-30-6.21-59.86-9.11-89.81c-0.91-9.34-1.17-18.77-1.17-28.17
		c-0.06-313.66-0.05-627.32-0.05-940.98c0-113.55,0-227.09,0-340.64C4165.98,930.73,4165.98,924.56,4165.98,915.51z"/>
	<path class="st2" d="M2911.98,1832.97c-8.11-0.04-11.72-3.97-15.83-6.52c-80.86-50.24-168.24-83.65-261.91-99.93
		c-58.19-10.12-116.84-13.77-176.1-9.96c-106.72,6.86-207.38,34.41-302.01,84.06c-193.69,101.63-334.61,286.64-381.21,499.95
		c-5.9,26.99-9.96,54.23-13.37,81.59c-0.93,7.44-0.93,15.02-0.96,22.54c-0.14,40.77-0.19,81.54-0.19,122.31
		c-0.01,686.18-0.01,1372.36-0.02,2058.54c0,6.27-0.02,12.54-0.37,18.8c-0.17,3.02-2.59,4.13-5.28,3.51
		c-3.65-0.85-7.23-2.02-10.76-3.3c-161.24-58.66-316.9-129.14-463.34-219.08c-35.28-21.67-69.41-45.07-102.83-69.53
		c-7.98-5.84-12.22-11.99-10.95-21.91c0.56-4.32,0.09-8.77,0.09-13.16c0-543.17,0.16-1086.35-0.28-1629.52
		c-0.04-46.97-0.23-94-3.19-140.99c-2.37-37.53-1.64-75.21,0.68-112.83c2.04-33.17,4.45-66.27,8.35-99.3
		c8.98-76.15,24.43-150.95,46.83-224.21c74.84-244.71,208.18-452.06,400.31-621.05c167.52-147.34,360.34-246.38,577.53-297.68
		c59.86-14.14,120.43-23.92,181.75-29.35c46.27-4.1,92.57-6.73,139.02-6.06c127.38,1.84,252.22,20.45,374.25,57.28
		c3.6,1.09,7.23,2.08,10.78,3.33c7.77,2.76,8.68,3.97,8.95,12.07c0.15,4.39,0.05,8.78,0.05,13.17c0,202.59,0,405.19,0,607.78
		C2911.98,1819.72,2911.98,1825.92,2911.98,1832.97z"/>
	<path class="st2" d="M3247.87,316.04c7.8-1.55,13.31,1.98,19.08,4.02c76.88,27.25,151.88,58.99,225.35,94.39
		c76.84,37.02,153.04,75.23,225.94,119.7c39.1,23.85,77.26,49.1,114.22,76.17c7.2,5.28,11.51,10.9,10.42,20.17
		c-0.58,4.95-0.1,10.02-0.1,15.04c0,619.71-0.03,1239.41,0.07,1859.12c0.01,47.16-4.82,93.86-10.98,140.51
		c-10.04,76.02-26.9,150.51-50.34,223.44c-67.27,209.25-178.93,391.43-335.17,546.09c-145.92,144.44-316.24,249.78-510.41,316.41
		c-78.45,26.92-158.82,46.03-241.01,57.59c-67.19,9.45-134.65,14.55-202.49,13.82c-126.76-1.38-251.04-19.56-372.59-55.86
		c-0.6-0.18-1.23-0.27-1.82-0.47c-15.99-5.66-16.62-2.08-16.58-21.57c0.07-35.75,0.02-71.5,0.02-107.26
		c0-167.47-0.04-334.94,0.14-502.41c0.01-7.03-2.8-14.76,2.84-21.16c7.22,0.71,12.25,5.84,18.03,9.28
		c84.6,50.34,175.72,82.45,273.01,96.59c66.07,9.6,132.34,10.43,198.78,2.07c171.1-21.52,317.53-93.53,438.98-215.4
		c105.04-105.4,172.12-231.81,201.8-377.68c8.63-42.42,13.11-85.33,13.06-128.86c-0.39-339.96-0.27-679.91-0.28-1019.87
		c-0.01-373.83,0-747.66,0-1121.49C3247.87,330.94,3247.87,323.47,3247.87,316.04z"/>
	<path class="st3" d="M2143.34,2247.73c16.07-16.76,34.11-31.35,52.49-45.33c29.94-22.78,60.96-44.09,92.28-64.95
		c40.28-26.82,83.41-48.48,126.26-70.64c26.71-13.81,53.88-26.74,80.74-40.26c7.13-3.59,13.59-4.76,21.33-0.9
		c57.17,28.58,114.95,56.07,168.99,90.41c59.89,38.06,117.11,79.78,168.81,128.66c30.07,28.44,60.14,56.88,90.47,85.04
		c3.77,3.5,4.92,6.83,4.17,11.48c-9.52,59.41-15.3,119.4-28.31,178.26c-7.05,31.9-18.53,62.45-28.38,93.49
		c-5.3,16.72-11.37,33.19-17.12,49.76c-12.34,35.57-26.62,70.27-45,103.25c-14.03,25.18-27.11,50.88-40.7,76.3
		c-2.3,4.3-3.63,9.42-8.69,11.72c-3.64-1.98-5.52-5.16-6.29-9.12c4.4-21.28,17.38-38.66,27.34-57.19
		c58.42-108.63,98.79-223.21,117.39-345.31c4.44-29.11,8.14-58.33,12.81-87.4c1.79-11.15-0.94-19.41-8.81-27.02
		c-97.16-93.95-198.69-182-321.01-242.81c-25.23-12.54-49.8-26.46-74.92-39.29c-12.79-6.54-24.23-6.92-37.46-0.7
		c-105.26,49.54-205.31,107.65-297.94,178.3c-13.77,10.5-24.7,25.22-42.55,30.01C2146.22,2252.68,2144.19,2250.8,2143.34,2247.73z"
		/>
	<path class="st4" d="M2776.15,2846.62c3.24,1.41,4.27,4.18,4.54,7.42c-3,5.69-8.68,6.62-14.14,7.86
		c-31.78,7.23-63.75,13.48-95.96,18.58c-33.43,5.3-66.88,10.24-100.61,13.56c-49.45,4.88-98.77,7.12-148.24,0.76
		c-27.98-3.6-56.07-6.34-84.02-10.12c-32.96-4.45-65.2-12.41-97.29-21.11c-9.26-2.51-15.31-7.58-19.87-15.69
		c-14.76-26.22-30.03-52.15-44.65-78.44c-7-12.58-13.53-25.49-19.33-38.66c-11.86-26.95-22.83-54.3-34.65-81.28
		c-15.66-35.77-24.31-73.7-35.42-110.9c-13.72-45.95-20.03-93.06-25.07-140.47c-1.92-18.09-3.61-36.18-3.79-54.41
		c-0.07-7.29,1.84-13.55,6.34-19.15c23.24-28.93,48.64-55.61,79.33-76.84c1.69,1.59,3.37,3.18,5.06,4.77
		c-0.16,14.67-12.14,21.53-21.22,29.16c-15.01,12.6-27.6,27.22-40.71,41.53c-9.14,9.98-12.71,21.1-11.65,34.38
		c5.79,72.02,16.09,143.23,37.9,212.37c29.39,93.15,70.14,181.07,121.61,264.07c5.64,9.09,13.56,14.18,23.71,17.07
		c56.97,16.19,115.42,23.57,174.19,28.08c109.78,8.41,217.29-8.06,324.02-31.7C2762.78,2846.02,2769.32,2842.2,2776.15,2846.62z"/>
	<path class="st5" d="M2776.15,2846.62c-24.9,8.74-50.81,13.4-76.62,18.15c-28.91,5.33-57.98,9.95-87.13,13.79
		c-22.32,2.94-44.85,4.51-67.32,6.09c-16.86,1.19-33.82,1.08-50.69,2.16c-23.89,1.52-47.61-0.98-71.27-3.12
		c-36.77-3.33-73.58-6.97-109.82-14.32c-21.45-4.35-42.62-10-63.97-14.86c-7.21-1.64-12.38-5.5-16.05-11.85
		c-22.26-38.46-45.38-76.38-64.42-116.69c-21.43-45.37-40.68-91.54-56.2-139.21c-17.67-54.3-30.6-109.72-36.61-166.61
		c-2.24-21.17-3.89-42.41-6.38-63.54c-1.65-13.98,2.18-25.07,11.73-35.8c18.37-20.64,38.23-39.69,58.1-58.79
		c3.12-3,5.94-6.32,8.9-9.49c1.11-0.55,2.4-0.89,3.29-1.68c49.12-43.12,104.04-78.32,157.87-114.96
		c25.89-17.63,54.11-31.48,81.97-45.76c34.54-17.71,69.41-34.76,103.97-52.42c7.86-4.02,14.72-4.85,23.01-0.7
		c56.54,28.32,113.51,55.9,166.88,90.01c60.83,38.87,118.05,82.56,170.84,131.9c24.71,23.1,49.01,46.66,73.72,69.77
		c6.01,5.62,8.86,11.82,7.65,19.97c-7.63,51.4-13.76,103.04-23.65,154.08c-7.05,36.36-19.07,71.34-31.02,106.29
		c-7.9,23.1-16.17,46.07-24.19,69.13c-11.77,33.84-27.96,65.63-44.77,97.14C2801.29,2799.04,2788.74,2822.84,2776.15,2846.62z"/>
	<path class="st6" d="M2287.8,2395.51c-3.17,12.11-6.37,24.21-9.51,36.33c-3.03,11.69-3.37,23.56-1.94,35.47
		c0.82,6.89,2.61,13.54,7.18,19.08c2.09,2.53,4.68,4.34,8.03,3.68c4-0.79,4.18-4.32,3.93-7.37c-0.58-6.86-1.61-13.68-2.37-20.53
		c-2.81-25.23,6.66-45.24,26.07-60.98c1.93-1.56,4.15-3.03,6.59-1.24c2.16,1.58,0.41,3.53-0.32,4.99
		c-5.76,11.51-7.62,23.77-7.32,36.48c0.13,5.75,1.41,11.16,4.58,16.05c4.21,6.5,12.34,7,17.54,1.19c2.64-2.95,3.82-6.42,4.26-10.21
		c1.16-9.96,2.25-19.92,3.38-29.88c2.54-22.28,11.8-40.44,31.39-52.41c2.02,1.9,2.22,3.8,1.36,5.35
		c-10.78,19.4-8.64,39.94-5.44,60.56c0.96,6.18,2.42,12.28,3.5,18.44c2.51,14.37-2.42,25.87-13.78,34.72
		c-5.44,4.23-10.88,8.49-16.59,12.32c-10.92,7.34-22.03,14.39-33.07,21.55c-8.43,5.46-16.57,11.31-23.64,18.5
		c-5.39,5.48-9.57,11.75-9.89,19.7c-0.34,8.42,4.43,12.16,11.67,8.4c8.33-4.34,16.89-8.27,25.09-12.83
		c29.34-16.31,58.38-15.89,87.74,0.22c11.07,6.07,21.56,12.82,30.87,21.23c7.86,7.1,16.38,10.21,27.17,9.99
		c28.2-0.59,56.42-0.54,84.62-0.02c10.71,0.2,19.64-2.41,27.27-9.85c10.43-10.18,22.91-17.31,35.72-24.02
		c21.87-11.47,44.3-12.75,67.2-3.88c8.15,3.16,15.95,7.24,23.82,11.07c5.62,2.74,10.98,6.04,16.68,8.59
		c6.94,3.11,12.1-0.9,11.87-8.63c-0.16-5.32-2.59-9.61-5.58-13.68c-4.88-6.64-11.1-11.95-17.76-16.66
		c-12.78-9.06-25.74-17.85-38.62-26.77c-9.8-6.79-19.24-14-27.98-22.15c-6.49-6.05-9.25-13.29-8.25-21.93
		c0.65-5.58,1.83-11.11,2.69-16.67c1.44-9.27,3.35-18.51,4.11-27.84c1.07-13.27-0.27-26.31-6.82-38.34
		c-0.86-1.59-1.28-3.44-1.7-5.22c-0.11-0.45,0.54-1.09,1.27-2.43c18.13,10.35,27.79,26.16,30.89,46.26
		c1.81,11.75,3.2,23.59,4.26,35.43c0.55,6.15,2.87,10.74,8.09,13.93c4.62,2.82,10.4,1.64,13.2-2.79c2.75-4.35,4-9.21,4.3-14.25
		c0.72-11.99,0.01-23.82-4.96-35.02c-1.49-3.36-3.06-6.69-5.45-11.9c5.83,1.08,8.86,3.74,11.8,6.33
		c19.29,16.96,28.33,37.71,23.52,63.63c-0.91,4.9-1.33,9.91-1.66,14.9c-0.21,3.11-0.07,6.67,3.41,7.99c4.5,1.71,6.82-1.99,8.92-4.89
		c3.75-5.15,5.52-11.14,6.43-17.44c1.91-13.2,0.96-26.22-1.89-39.2c-3.1-14.14-8.75-27.41-13.5-40.99
		c-2.21-4.81-2.31-8.42,4.58-8.04c23.16,30.34,37.34,64.7,45.63,101.73c4.08,18.24,2.39,36.07-3.29,53.62
		c-3.08,9.5-6.62,18.87-10.3,28.15c-5.01,12.64-6.74,25.31-1.76,38.36c0.4,4.98-2.71,5.96-6.72,5.92
		c-28.12-7.49-56.83-7.44-85.66-7.37c-117.24,0.28-234.49,0.12-351.73,0.1c-15.66,0-31.05,2-46.27,5.5
		c-3.6,0.06-6.02,4.44-10.84,2.75c0.42-2.47,0.26-5.15,1.33-7.18c5.71-10.9,4.29-21.84,0.67-32.83c-2.35-7.13-4.65-14.3-7.41-21.27
		c-10.79-27.29-11.15-54.89-3.14-82.89c8-27.99,21.01-53.47,38-77C2290.15,2387.12,2289.97,2390.76,2287.8,2395.51z"/>
	<path class="st7" d="M2746.52,2613.61c0.99,3.76,6.07,7.57,0.05,11.27c-6.36,3.91-8.9,10.45-11.28,16.85
		c-9,24.24-26.8,33.17-51.67,30.86c-9.34-0.87-18.78-0.68-28.15-1.32c-10.19-0.69-18.11,1.4-23.07,11.89
		c-3.45,7.3-7.15,6.78-12.39-0.02c-1.14-1.48-1.98-3.18-2.98-4.77c-2.91-4.64-7.28-6.73-12.58-7c-3.75-0.19-7.51-0.24-11.27-0.23
		c-57.65,0.14-115.3,0.3-172.95,0.46c-3.13,0.01-6.27,0.08-9.4,0.05c-6.72-0.07-12.3,1.69-15.33,8.47c-1,2.23-2.68,4.21-4.27,6.12
		c-2.29,2.77-5.74,2.72-8.05,0.07c-0.41-0.47-0.96-0.9-1.16-1.45c-4.63-12.43-14.96-13.71-26.13-13.5
		c-10.02,0.19-20.05,0.39-30.08,0.35c-6.26-0.03-12.51-0.45-18.77-0.76c-11.16-0.55-18.72-6.41-23.33-16.27
		c-2.65-5.67-4.75-11.58-7.35-17.27c-1.8-3.95-3.64-7.98-6.15-11.48c-5.76-8.03-5.96-7.93,1.17-14.13c1.41-1.23,3.04-2.2,4.57-3.3
		c6.73-8.63,16.56-7.97,25.78-7.98c135.3-0.16,270.6-0.35,405.89,0.26C2721.18,2600.85,2737.12,2598.7,2746.52,2613.61z"/>
	<path class="st7" d="M2570.68,2270.48c15.47,4.69,28.13,12.86,34.65,28.41c1.99,4.73,5.19,6.64,10.23,5.5
		c3.63-0.82,7.25-2.04,10.92-2.2c13.86-0.63,27.27,0.64,38.1,10.91c4.92,4.67,10.02,9.16,15.04,13.73c0.63,3.86-0.58,5.87-4.84,4.85
		c-5.3-1.8-10.51-3.94-15.92-5.35c-23.14-6.02-41.28,6.45-44.01,30.13c-0.79,6.89-0.59,13.83,2.03,20.29
		c8.31,20.46,9.06,41.13,2.81,62.25c-1.22,4.12-1.26,8.62-1.66,12.96c-2.34,25.63,7.74,44.89,30.01,57.66
		c10.24,5.87,20.72,11.33,31.09,16.97c0.94,7.45-3.79,5.79-8,4.97c-3.74-0.4-7.48-0.76-11.22-1.22
		c-21.33-2.63-41.1,2.13-59.63,12.61c-10.39,5.88-20.3,12.53-28.94,20.8c-4.8,4.59-10.18,7.23-16.78,7.18
		c-4.32-0.04-9.83,1.38-12.5-2.13c-3.8-4.97,1.5-9.25,3.89-13.16c7.17-11.77,15.05-23.1,22.42-34.75
		c6.7-10.6,12.74-21.54,17.33-33.29c2.78-7.12,4.68-14.44,4.7-21.94c0.05-14.29-5.31-25.59-19.63-31.11
		c-4.57-1.76-9.92-2.14-13.35-6.87c4.68-5.9,12.37-5.05,18-8.44c2.06-1.24,4.89-2.37,4.16-5.45c-0.38-1.6-1.73-3.37-3.14-4.23
		c-3.14-1.92-6.59-3.33-9.94-4.96c2.45-6.44,8.86-4.01,12.95-6.44c4.19-2.48,4.92-7.8,0.81-10.81c-2.97-2.18-6.48-3.63-10.16-5.62
		c0.76-1.57,1.08-3.75,2.31-4.59c20.86-14.25,22.67-34.83,18.28-56.87c-3.14-15.77-11.59-28.96-23.55-39.8
		c-1.85-1.68-3.58-3.48-5.36-5.22C2561.73,2268.05,2566.06,2268.99,2570.68,2270.48z"/>
	<path class="st7" d="M2344.22,2530.62c-1.21,0.22-2.43,0.45-3.64,0.67c-4.49,1.6-8.45,2.2-8.46-4.55l0.55-0.22
		c2.19-1.61,5.56-0.86,7.2-3.57c11.96-6.91,22.92-15.23,33.83-23.65c15.26-11.78,21.52-27.26,19.12-46.17
		c-0.94-7.43-2.38-14.87-4.41-22.07c-4.23-15.02-3.73-29.6,1.74-44.23c2.4-6.42,4.34-13.14,5.43-19.89
		c1.91-11.78-1.47-22.46-9.4-31.34c-8.1-9.06-18.47-13.1-30.47-10.36c-7.26,1.65-14.19,4.76-21.25,7.29
		c-2.75,0.98-5.11,3.91-8.47,1.51c14.83-24.78,36.89-35.26,64.26-30.54c0.62,0.11,1.23,0.26,1.82,0.45
		c6.8,2.15,11.91,0.59,15.92-5.81c4.69-7.48,11.29-13.41,18.12-18.93c2.36-1.91,5.39-2.98,8.12-4.43c2.03-2.18,5.54-1.3,7.5-3.61
		l0.36-0.12c4.84-2.71,7.96-2.11,8.09,4.22l-0.32,0.25c-2.17,0.16-2.91,1.88-3.75,3.47c-7.89,10.46-16.27,20.55-22.76,32.02
		c-5.34,9.43-8.2,19.38-9.02,30.22c-1.1,14.65,4.66,25.32,16.57,33.36c2.95,2,7.63,1.61,8.91,6.43c-0.85,3.82-4.74,2.64-7.21,3.84
		c-3.75,1.82-6.07,4.72-5.57,8.83c0.43,3.49,3.45,4.81,6.69,5.55c4.09,0.93,8.94,0.26,11.68,5.18c-4.48,2.31-8.89,4.45-13.16,6.85
		c-1.93,1.08-1.78,5.49,0.28,6.44c6.73,3.14,13.57,6.03,20.28,8.98c-1.5,5.92-6.44,5.72-10.39,7.13
		c-16.9,6.03-23.75,16.18-22.58,34.05c0.7,10.75,4.42,20.71,8.96,30.39c6.12,13.06,14.09,25.03,21.89,37.1
		c5.08,7.87,10.05,15.82,15.03,23.75c1.68,2.67,3.04,5.45,1.61,8.87c-5.17,2.72-10.87,1.54-16.41,1.49
		c-3.83-0.04-7.38-1.14-10.09-4.15c-17.02-18.89-39.54-27.86-63.1-34.93C2366.55,2528.07,2355.37,2527.52,2344.22,2530.62z"/>
	<path class="st8" d="M2479.3,2429.74c6.24-2.36,13.18-1.26,19.88-1.05c10.5,0.32,21.17-1.74,31.51,1.67
		c4.21,10.59-0.58,20.76-1.72,31.03c-3.65,32.93-7.9,65.8-11.89,98.7c-0.45,3.74-0.47,7.88-4.57,9.56c-5.98,2.45-12.3,2.79-18-0.54
		c-1.71-1-2.71-4.13-3.02-6.42c-1.11-8.05-1.78-16.16-2.61-24.24c-3.58-34.83-7.16-69.66-10.67-104.5
		C2478.09,2432.85,2478.77,2431.68,2479.3,2429.74z"/>
	<path class="st9" d="M2746.52,2613.61c-12.01-6.47-25.02-7.06-38.29-7.06c-134.13-0.02-268.25-0.16-402.38-0.33
		c-10.04-0.01-20.03,0.15-29.89,2.28c-3.21-3.21-7.41-2.22-11.27-2.68c8.44-7.61,19.14-8.35,29.61-9.5
		c4.95-0.55,9.99-0.22,14.99-0.22c130.04-0.01,260.09-0.03,390.13,0.04c8.11,0,16.22,0.61,24.32,1.06
		c9.61,0.53,18.29,3.71,25.99,9.53c1.56,0.64,2.1,1.32,1.62,2.05c-0.48,0.75-0.97,1.13-1.47,1.13
		C2748.76,2611.15,2747.64,2612.38,2746.52,2613.61z"/>
	<path class="st10" d="M2481.45,2296.04c1.09,2.03,2.1,3.53,2.72,5.18c0.89,2.37,1.64,5.06,4.48,5.35c2.95,0.3,4.12-2.39,4.84-4.62
		c2.51-7.69,4.72-15.49,7.14-23.21c0.74-2.36,1.65-4.72,2.84-6.88c0.51-0.93,1.87-1.78,2.93-1.89c0.81-0.09,2.31,0.86,2.55,1.64
		c3.33,10.7,6.4,21.49,9.84,32.15c0.44,1.37,2.7,3.14,3.91,3c1.39-0.16,2.75-2.12,3.77-3.54c0.69-0.95,0.66-2.39,1.15-3.52
		c0.47-1.09,1.2-2.06,1.81-3.09c9.5,11.91,12.78,22.63,10.13,34.84c-0.63,2.91-2.09,5.93-4,8.22c-7.97,9.59-16.14,19.01-24.47,28.28
		c-3.23,3.59-6.62,3.75-9.69,0.44c-9.32-10.05-18.48-20.27-27.48-30.6c-3.91-4.48-4.76-9.87-3.65-15.8
		C2472.02,2312.67,2475.87,2304.37,2481.45,2296.04z"/>
	<path class="st11" d="M2479.81,2765.96c3.21-17,7.47-33.84,20.34-46.97c4.5-4.59,8.12-4.25,12.51,1.01
		c9.84,11.78,16.78,25.45,17.97,40.49c1.55,19.47-6.09,36.51-20.1,50.33c-2.51,2.48-6.03,2.28-8.47-0.11
		C2489.64,2798.49,2482.59,2783.52,2479.81,2765.96z"/>
	<path class="st11" d="M2530.95,2716.22c15.43-2.08,25.75-1.21,35.99,2.3c10.11,3.46,17.08,10.02,21.16,19.77
		c0.72,1.72,1.38,3.51,1.74,5.34c2.58,13.01,10.33,20.96,23.18,24.06c1.79,0.43,3.79,1.44,3.29,3.45c-0.4,1.59-1.86,3.47-3.34,4.15
		c-15.59,7.15-31.38,6.69-47.15,0.58c-4.84-1.88-8.34-5.58-10.79-10.01c-2.1-3.79-4.06-7.81-5.13-11.98
		C2546.63,2741.23,2543.69,2728.5,2530.95,2716.22z"/>
	<path class="st11" d="M2416.66,2779.74c-0.59-0.07-4.98-0.31-9.26-1.14c-5.67-1.1-10.43-4.86-9.73-7.36c1.2-4.28,5.45-4.94,8.73-6
		c10.33-3.35,14.98-10.78,15.97-20.92c1.36-13.85,10.24-20.89,22.31-24.83c8.32-2.72,16.86-4.75,25.78-4.23
		c4.75,0.28,6.72,3.3,4.1,7.51c-4.66,7.5-8.19,15.2-10,24.02c-4.88,23.74-14.54,31.64-38.49,32.93
		C2424.2,2779.83,2422.32,2779.74,2416.66,2779.74z"/>
	<path class="st12" d="M2682.84,2244.73c-2.37,2.89-4.73,5.8-7.12,8.67c-2.39,2.86-5.35,3.13-8.24,1.11
		c-2.77-1.93-4.47-4.76-2.01-7.91c10.75-13.79,21.6-27.51,32.58-41.12c1.8-2.23,4.54-1.6,6.71-0.02c2.02,1.47,3.8,3.26,5.79,4.76
		c4.14,3.12,4.87,6.9,2.59,11.48c-3.34,6.71-6.64,13.44-9.87,20.21c-1.04,2.19-2.43,4.46-0.32,7.12c5.37-0.19,8.06-4.89,11.88-7.63
		c4.06-2.9,7.67-6.42,11.65-9.45c5.8-4.43,17.79-0.32,19.59,6.83c0.38,1.52-0.43,3.79-1.46,5.13
		c-10.32,13.35-20.75,26.62-31.29,39.8c-2.33,2.91-5.34,2.63-8.17,0.39c-2.22-1.76-3.03-4.05-1.5-6.5
		c2.98-4.75,6.22-9.34,9.36-13.99c1.66-3.19,2.53-6.78,4.73-9.68c0.88-1.6,2.15-2.91,3.36-4.15c-1.49-0.57-1.12,1.35-2.07,1.49
		c-2.44,4.07-5.66,7.02-10.39,8.01c-3.97,2.97-8,5.88-11.9,8.94c-3.22,2.52-6.37,3.54-10.12,0.98c-4.81-3.29-3.72-7.1-1.48-11.29
		c0.86-1.61,1.16-3.52,1.71-5.29c2.66-4.88,1.48-10.94,4.69-15.51c-0.23-0.92,2.44-1.47,0.84-2.31c-2.17-1.13,1.26-0.42-0.84,1.15
		C2689.52,2239.85,2686.86,2242.95,2682.84,2244.73z"/>
	<path class="st13" d="M2371.2,2756.36c-10.03,0.11-16.99-2.46-23.57-6.2c-8.75-4.99-8.53-8.14,0.45-14.08
		c8.3-5.49,16.48-11.18,24.57-16.98c13.91-9.97,29.51-12.67,46.15-11.03c1.05,0.1,2.26,0.84,2.96,1.65
		c1.54,1.79,0.42,3.62-0.75,4.98c-8.1,9.45-16.33,18.79-24.47,28.2C2389.24,2751.34,2380.09,2755.95,2371.2,2756.36z"/>
	<path class="st13" d="M2674.57,2742.66c-11.59,11.02-23.97,14.92-38.26,13.37c-4.52-0.49-8.38-2.68-11.5-5.84
		c-4.82-4.88-9.72-9.76-13.92-15.15c-5.39-6.92-10.4-14.08-18.08-18.77c-1.61-0.98-3.02-2.72-1.93-4.39
		c0.89-1.38,2.9-2.61,4.56-2.84c14.63-2.03,29.07-0.6,41.51,7.5C2649.38,2724.62,2660.54,2734.6,2674.57,2742.66z"/>
	<path class="st14" d="M2189.73,2406.14c5.68,2.44,11.46,4.69,16.96,7.48c1.03,0.52,1.29,3.22,1.29,4.91
		c0.01,2.23-1.99,3.04-3.81,3.28c-1.81,0.23-3.8,0.24-5.54-0.23c-16.18-4.43-32.32-8.96-47.16-15.3c-2.91-3.85-0.3-6.58,0.27-9.42
		c1.12-5.64,4.63-8.43,10.51-8.54c10.55-0.2,21.1-0.63,31.72-0.96c-0.67-5.35-5.15-5.26-8.34-6.38c-7.62-2.66-15.47-4.64-23.09-7.31
		c-2.66-0.93-2.99-3.64-2.03-6.29c0.94-2.59,2.88-3.9,5.49-4.28c0.56-0.08,1.2,0.28,1.79,0.48c15.94,5.36,31.88,10.7,47.81,16.1
		c3.59,1.22,4.49,3.92,3.53,7.36c-2.54,9.03-4.83,10.85-14.32,11.41c-6.22,0.37-12.44,0.7-18.66,1.05c-3.55,2.15-7.06,2.5-9.03,0.97
		C2180.48,2401.24,2185.24,2403.41,2189.73,2406.14z"/>
	<path class="st15" d="M2818.38,2406.61c5.9-1.98,11.79-3.99,17.7-5.93c1.77-0.58,3.57-1.19,5.4-1.4c2.77-0.32,4.7,1.12,5.81,3.62
		c1.15,2.59,0.44,4.89-1.59,6.66c-0.9,0.79-2.17,1.24-3.34,1.63c-14.18,4.74-28.34,9.54-42.59,14.07c-3.5,1.11-7.53,2-10.08-2.02
		c-3.3-5.21-3.15-12.14,0.63-15.44c6.58-5.73,13.46-11.12,20.22-16.65c1.93-4.72-0.61-4.93-4.16-4.12
		c-7.71,2.31-15.35,4.87-23.16,6.79c-2.44,0.6-4.63-1.44-5.05-4.26c-0.27-1.81-0.35-3.74,1.66-4.83c1.08-0.59,2.13-1.31,3.29-1.7
		c15.27-5.07,30.56-10.13,45.86-15.1c3.15-1.03,6.08-0.81,7.95,2.57c3.25,5.88,3.85,11.19,0.75,13.72
		c-7.67,6.26-15.62,12.16-23.46,18.21C2812.29,2407.11,2813.06,2409.13,2818.38,2406.61z"/>
	<path class="st16" d="M2329.06,2251.72c-0.94,1.09-1.87,2.77-3.29,3.71c-2.22,1.46-5.08,1.48-6.97-0.25
		c-3.64-3.33-6.77-7.21-10.23-10.76c-1.93-1.98-4.23-2.06-6.83-1.13c-3.59,1.28-5.43,4.26-3.61,7c3.08,4.64,6.5,9.06,9.71,13.62
		c1.8,2.55,0.7,4.85-1.28,6.51c-2.36,1.97-5.28,4-8.21,1.39c-2.74-2.46-4.99-5.5-7.3-8.4c-7.75-9.73-15.59-19.4-23.11-29.31
		c-4.94-6.51-4.52-8.44,2.08-13.85c2.88-2.36,5.89-4.62,9.06-6.56c11.29-6.92,20.96-4.81,25.74,7.35
		c2.62,6.68,4.44,11.72,11.94,14.44C2322.14,2237.44,2328.39,2247.73,2329.06,2251.72z"/>
	<path class="st17" d="M2164.44,2464.05c6.86,0,13.73,0.15,20.58-0.06c3.51-0.1,5.89-2.54,6.43-5.76c0.57-3.37-1.47-6.18-4.66-7.23
		c-4.1-1.35-8.38-2.3-12.66-2.94c-9.26-1.38-18.57-2.4-27.84-3.67c-3.55-0.49-5.5-2.66-5.21-6.35c0.29-3.71,2.74-5.55,6.15-5.63
		c14.46-0.38,28.71,1.52,42.57,5.43c8.32,2.34,11.71,7.93,12.04,16.94c0.32,8.66-1.62,16.13-10.38,20.18
		c-4.05,1.87-8.25,2.68-12.67,2.94c-12.64,0.75-24.81-2.19-37.06-4.48c-2.72-0.51-4.08-2.91-4.04-5.53
		c0.05-3.82,2.77-5.38,6.15-5.47c6.86-0.16,13.72-0.05,20.58-0.05C2164.44,2462.92,2164.44,2463.49,2164.44,2464.05z"/>
	<path class="st15" d="M2771.89,2352.47c6.83-0.3,12.58-2.63,17.97-5.9c6.95-4.21,13.81-8.59,20.73-12.85c3.46-2.13,6.9-3.1,9.75,1
		c2.48,3.56,2,6.95-1.89,9.64c-10.32,7.11-20.97,13.75-32.6,18.45c-15.74,6.36-30.59-4.28-30.46-21.61
		c0.04-4.63,2.3-8.68,6.18-11.07c12.23-7.54,24.62-14.83,37.05-22.04c3.16-1.83,6.04-0.77,7.82,2.46c1.75,3.19,1.15,6.39-1.78,8.24
		c-6.87,4.32-14.08,8.11-21.05,12.27c-5.33,3.18-11.31,5.53-15.04,10.9c-1.51,2.17-2.11,4.64-0.43,6.93
		C2769.18,2350.31,2770.73,2351.38,2771.89,2352.47z"/>
	<path class="st18" d="M2467.57,2142.23c4.47-0.35,7.73,1.46,9.48,6.42c5.4,15.27,11.13,30.42,16.58,45.67
		c1.07,2.99,1.29,6.53-2.31,7.96c-3.67,1.46-7.43,0.97-9.79-2.87c-0.97-1.58-1.36-3.55-2.44-5.03c-4.9-6.68-13.83-6.46-18.52,0.5
		c-1.37,2.03-1.8,4.7-3.23,6.66c-2.06,2.82-5.23,3.17-8.37,2.02c-2.85-1.04-3.14-3.69-2.66-6.14c3.03-15.27,6.04-30.56,9.4-45.76
		C2457.47,2143.75,2459.6,2142.33,2467.57,2142.23z"/>
	<path class="st19" d="M2835.56,2447.38c-6.44,1.08-14.47,2.3-22.45,3.83c-4.2,0.8-6.14,3.75-6.43,8.02
		c-0.36,5.29,3.58,8.84,8.1,6.64c3.25-1.58,5.96-4.27,9.08-6.18c0.86-0.53,2.6-0.49,3.49,0.04c3.88,2.3,2.99,6.41,3.29,9.97
		c0.28,3.47-1.47,6.25-4.57,7.4c-2.88,1.07-6.1,1.38-9.2,1.65c-14.33,1.24-17.02-0.32-19.69-11.12
		c-3.67-14.83-0.46-23.72,10.92-28.13c11.24-4.35,23.09-5.74,35.05-4.31c9.86,1.18,15.48,6.49,17.08,14.81
		c1.92,9.95-1.01,17.61-9.01,22.81c-2.74,1.78-5.88,2.53-8.46-0.35c-2.37-2.65-2.26-5.94-0.41-8.61c1.36-1.97,3.75-3.24,5.73-4.76
		c2.25-1.72,3.01-4.03,2.05-6.55c-0.91-2.38-2.64-4.28-5.42-4.58C2842.23,2447.7,2839.73,2447.64,2835.56,2447.38z"/>
	<path class="st19" d="M2665.35,2192.59c-3.11,15.28-6.21,30.57-9.36,45.85c-0.57,2.79-2.78,4.73-5.23,4.2
		c-2.13-0.45-4.27-2.48-5.65-4.37c-0.96-1.31-1.05-3.62-0.81-5.38c0.99-7.19-3.35-9.87-9.1-12.07c-4.07-1.56-7.1-1.22-9.91,2.17
		c-1.56,1.88-3.33,3.96-6.1,3.63c-1.79-0.21-3.68-0.87-5.18-1.86c-1.77-1.17-1.49-3.14-0.64-4.89c0.54-1.12,1.08-2.29,1.87-3.23
		c9.59-11.52,19.03-23.18,28.93-34.43c5.6-6.37,8.73-6.59,14.63-4.01C2665.59,2181.16,2665.24,2186.64,2665.35,2192.59z"/>
	<path class="st18" d="M2544.08,2155.75c-0.72,1.29-1.25,3.53-2.6,4.27c-1.38,0.76-4.12,0.78-5.31-0.13
		c-2.87-2.21-4.98-5.41-7.84-7.64c-1.05-0.82-3.78-0.62-4.97,0.21c-1.29,0.89-2.23,3.04-2.34,4.71c-0.22,3.31,1.77,5.91,4.24,7.92
		c4.33,3.53,9.15,6.54,13.15,10.41c5.99,5.79,6.82,14.13,2.76,20.46c-4.69,7.3-14.38,10.96-22.84,8.63
		c-8.4-2.31-12.52-7.3-13.15-15.91c-0.22-2.95,3.35-4.63,6.75-4.17c4.73,0.64,5.28,4.71,7.36,7.55c1.69,2.3,4.21,3.26,6.48,2.04
		c3.04-1.63,3.97-5.01,2.46-8.02c-1.33-2.66-3.51-5.04-5.74-7.08c-3.67-3.35-8.08-5.94-11.44-9.54c-4.54-4.86-6.07-10.73-3.09-17.24
		c3.31-7.22,11.33-12.26,19.71-11.49c7.11,0.65,13.39,3.19,15.81,10.91C2543.83,2152.81,2543.84,2154.09,2544.08,2155.75z"/>
	<path class="st20" d="M2336.63,2189.21c-3.81,0.73-5.01,2.34-5.14,4.16c-0.12,1.69,0.3,3.75,1.25,5.1c2.33,3.3,6.08,4.13,9.89,4.5
		c5.6,0.55,11.18,0.98,16.47,3.3c11.4,5.01,14.09,16.43,5.97,25.99c-6.95,8.18-17,10.92-25.11,6.84c-4.81-2.42-7.81-7.73-5.54-10.27
		c2.74-3.06,6.16-3.75,10.08-1.89c2.18,1.04,4.56,1.82,6.94,2.25c2.14,0.39,3.6-1.36,3.97-3.12c0.35-1.67,0.18-3.83-0.64-5.28
		c-1.64-2.92-4.92-3.77-7.94-4.39c-4.89-1.01-9.96-1.23-14.78-2.46c-7.06-1.79-12.74-5.61-13.77-13.53c-0.97-7.45,2.1-13.46,7.93-18
		c8.27-6.44,16.01-6.23,23.7,0.63c1.33,1.19,2.61,3.04,1.35,4.92c-0.97,1.45-2.37,2.83-3.9,3.64
		C2342.79,2194.01,2339.34,2188.78,2336.63,2189.21z"/>
	<path class="st16" d="M2767.05,2259.87c7.5,5.48,12.5,11.88,16.83,18.7c4.48,7.05,3.18,13.56-3.18,20.28
		c-6.67,7.04-14.86,8.95-21.89,4.96c-1.61-0.91-2.98-2.27-4.46-3.41c-9.17-7.04-9.17-7.05-18.28-0.33c-1.5,1.11-2.88,2.42-4.45,3.42
		c-3.21,2.03-5.85,1.06-7.95-1.87c-1.57-2.19-2.38-4.74-0.23-6.74C2737.1,2282.17,2751.66,2270.57,2767.05,2259.87z"/>
	<path class="st14" d="M2227.68,2312.09c-5.15-6.26-10.36-12.48-15.4-18.83c-1.51-1.9-3.01-4.04-3.67-6.31
		c-0.76-2.64,1.2-4.63,3.13-6.31c1.7-1.48,3.72-1.13,4.95,0.18c5.98,6.36,11.93,12.76,17.54,19.45
		c6.01,7.17,11.68,14.64,17.39,22.05c2.18,2.84,1.58,5.7-0.31,8.59c-1.83,2.79-4.05,4.72-7.49,4.74c-1.23,0.01-2.51-0.17-3.69-0.54
		c-16.09-5.06-31.86-10.92-47-18.39c-3.24-1.6-4.64-4.06-2.95-7.53c1.51-3.09,4.33-5.2,7.53-3.94c8.68,3.4,17.12,7.41,25.65,11.18
		C2228.05,2318.2,2229.09,2316.36,2227.68,2312.09z"/>
	<path class="st21" d="M2267.81,2264.38c0.03,3.49-3.31,5.74-5.46,8.64c-2.69,3.63-2.17,6.81,0.86,9.91
		c4.05,4.13,7.51,4.95,11.47,2.2c2.54-1.77,4.8-3.94,7.12-6.01c2.7-2.4,5.61-2.92,8.01-0.05c1.72,2.05,1.37,4.67-0.57,6.71
		c-4.29,4.51-8.49,9.13-13.01,13.39c-6.06,5.7-7.6,5.81-14-0.13c-10.95-10.17-21.61-20.64-32.32-31.06c-3.08-3-3.7-6.46-0.47-9.77
		c5.2-5.33,10.48-10.6,15.88-15.72c1.44-1.37,3.47-0.99,5,0.3c1.5,1.26,2.41,3.06,1.2,4.82c-2.11,3.07-4.65,5.83-6.81,8.87
		c-1.95,2.74-2.53,5.63,0.29,8.29c3.01,2.84,6.22,3.79,10.06,1.46c3.1-1.87,4.79-5.93,9.04-5.94
		C2266.22,2260.28,2267.38,2261.65,2267.81,2264.38z"/>
	<path class="st22" d="M2475.82,2398.81c-3.5-1.76-6.03-4.34-7.07-8.22c-1.6-5.94,1-10,7.17-10.07c19.33-0.22,38.67-0.27,58-0.09
		c7.51,0.07,7.51,0.43,9.26,10.48c-1.8,2.36-1.05,6.01-3.93,7.83l0.04-0.27C2518.19,2407.8,2497.03,2407.3,2475.82,2398.81z"/>
	<path class="st21" d="M2424.77,2147.57c4.07-0.01,5.14,1.46,6.02,3.11c1.05,1.96,0.23,4.44-1.09,4.97c-8.54,3.4-8.08,9.73-6.3,16.9
		c2.41,9.68,4.66,19.41,6.73,29.16c1.33,6.23-0.34,8.93-5.32,9.68c-4.96,0.75-7.19-0.84-8.88-7.13c-2.43-9.03-5.11-18.05-6.69-27.24
		c-1.36-7.9-4.25-12.7-13.12-12c-1.59,0.13-3.77-1.37-3.57-3.55c0.15-1.63,0.86-3.97,2.07-4.64
		C2404.58,2151.36,2415.84,2150.15,2424.77,2147.57z"/>
	<path class="st23" d="M2524.51,2421.49c-10.48,0.01-20.96-0.01-31.44,0.03c-4.98,0.02-9.83-0.48-14.45-2.54
		c-2.96-1.32-5.26-3.27-6.08-6.46c-0.99-3.84-0.57-7.35,3.25-9.64c21.17-2.95,42.32-3.72,63.43,0.5l-0.08-0.33
		C2544.69,2417.48,2533.3,2418.45,2524.51,2421.49z"/>
	<path class="st24" d="M2606.89,2159.79c-0.93,3.06-1.71,6.05-2.73,8.96c-3.11,8.84-6.27,17.67-9.51,26.47
		c-1.49,4.05-0.82,7.23,2.93,9.69c3.11,2.04,6.21,4.14,9.09,6.49c1.69,1.37,1.22,3.64,0.25,5.12c-0.91,1.39-2.71,3.17-4.09,3.14
		c-8.28-0.17-15.87-3.06-22.92-7.23c-3.08-1.82-3.44-5.03-2.33-8.25c5.31-15.36,10.64-30.71,16.06-46.04
		c0.38-1.08,1.39-2.11,2.36-2.78c2.31-1.6,4.9-1.1,7.05,0.19C2604.53,2156.41,2605.47,2158.16,2606.89,2159.79z"/>
	<path class="st25" d="M2395.61,2218.45c-0.63,0.84-1.16,2.28-2.12,2.69c-2.28,0.96-4.91,1.77-7.14,0.04
		c-1.41-1.09-2.81-2.61-3.45-4.24c-5.95-15.16-11.76-30.38-17.53-45.61c-1.02-2.7-0.17-4.76,2.75-5.83
		c2.52-0.92,4.87-0.88,7.04,0.78c0.48,0.37,0.92,0.91,1.15,1.47c6.45,15.62,12.89,31.25,19.23,46.92
		C2395.98,2215.72,2395.61,2217.1,2395.61,2218.45z"/>
	<path class="st21" d="M2231.02,2361.45c0.2,2.85-3.39,6.47-5.9,5.87c-1.21-0.29-2.41-0.71-3.53-1.25
		c-14.07-6.76-28.19-13.45-42.17-20.4c-4.73-2.35-5.85-5.57-3.89-8.91c2.52-4.28,6.21-3.51,9.72-1.82
		c14.06,6.78,28.08,13.65,42.02,20.68C2229.35,2356.68,2231.56,2358.37,2231.02,2361.45z"/>
	<path class="st26" d="M2539.22,2403.39c-21.14-0.17-42.28-0.33-63.43-0.5c0.01-1.36,0.02-2.72,0.02-4.07
		c21.16-0.11,42.32-0.23,63.48-0.34C2539.27,2400.11,2539.25,2401.75,2539.22,2403.39z"/>
	<path class="st27" d="M2287.8,2395.51c-0.9-3.04-0.58-6.77-4.52-8.11c2.77-9.08,9.29-15.68,15.09-22.76
		c3.62-0.88,5.25,0.4,4.55,4.2C2297.88,2377.73,2292.84,2386.62,2287.8,2395.51z"/>
	<path class="st28" d="M2332.12,2526.74c1.83,3.35,5.54,3.22,8.46,4.55c-5.55,4.42-12.69,4.88-18.9,7.65
		c-1.28,0.71-2.58,1.39-3.89,2.04c-1.25,0.49-2.49,0.98-3.74,1.46c-1.25,0.88-2.49,0.86-3.72-0.06c-0.91-1.23-0.94-2.45,0.03-3.66
		l0.33-0.26c0.75-1.48,1.95-2.4,3.54-2.83C2319.82,2531.93,2324.8,2526.97,2332.12,2526.74z"/>
	<path class="st29" d="M2724.8,2379.81c-4.14,1.19-3.78,4.95-4.58,8.04c-6.01-6.62-8.49-15.2-12.71-22.81
		c1.99-1.58,4.06-1.69,6.21-0.34C2718.33,2369.07,2723.29,2373.18,2724.8,2379.81z"/>
	<path class="st30" d="M2671.14,2531.56c2.92-1.25,6.61-1.26,8-4.96c6.19,0.48,10.73,4.09,15.13,7.98c0.28,3.75-0.66,6.06-5.06,4.32
		C2683.09,2536.69,2676.48,2535.69,2671.14,2531.56z"/>
	<path class="st31" d="M2570.68,2270.48c-3.28,1.01-7.15,0.92-8.9,4.78c-6.21-1.51-10.95-5.18-17.25-10.77
		C2555.65,2263.28,2563.49,2265.42,2570.68,2270.48z"/>
	<path class="st32" d="M2682.84,2244.73c1.05-4.71,4.18-8.07,7.36-11.41c3.73-0.75,5.69,0.23,4.32,4.44
		c-1.7,5.39-3.25,10.86-7.69,14.83C2686.19,2249.62,2686.25,2246.29,2682.84,2244.73z"/>
	<path class="st28" d="M2344.22,2530.62c11.13-6,22.31-6.15,33.52-0.25C2366.57,2530.46,2355.39,2530.54,2344.22,2530.62z"/>
	<path class="st26" d="M2524.51,2421.49c8.13-3.57,15.14-8.02,14.64-18.44c3.25,1.53,4.67,4.15,3.6,7.52
		c-1.5,4.72-3.01,9.81-8.96,10.71C2530.75,2421.75,2527.61,2421.45,2524.51,2421.49z"/>
	<path class="st33" d="M2689.21,2538.9c1.69-1.44,3.37-2.88,5.06-4.32c0.58,0.17,1.3,0.18,1.71,0.54
		c4.54,3.95,11.51,5.87,11.48,13.66c-6.57,0.39-10.35-5.16-15.67-7.44C2690.77,2540.9,2690.06,2539.73,2689.21,2538.9z"/>
	<path class="st34" d="M2708.63,2259.26c2.68-4.98,7.34-7.81,11.79-10.88c0.55,0.53,1.1,1.06,1.66,1.59
		c-0.68,1.37-1.15,2.82-1.42,4.33c-1.04,4.34-3.59,7.45-7.66,9.29C2711.55,2262.15,2710.09,2260.7,2708.63,2259.26z"/>
	<path class="st35" d="M2189.73,2406.14c-6.49,0.77-11.24-3.17-18.63-5.17c6.43-2.65,10.71-2.47,15.04-1.49
		C2187.33,2401.7,2188.53,2403.92,2189.73,2406.14z"/>
	<path class="st36" d="M2450.2,2275.25c-1.76-3.2-5.11-3.36-8.09-4.22c1.62-2.58,4.13-3.68,6.99-4.19c4.43-1.7,8.37-2.49,8.19,4.4
		C2455.26,2273.15,2453.37,2275.34,2450.2,2275.25z"/>
	<path class="st37" d="M2457.29,2271.23c-1.4-3.95-5.15-3.52-8.2-4.4c3.86-3.57,8.67-3.68,13.47-3.51c0.88,0.03,2.33,1.05,2.42,1.75
		c0.12,0.89-0.65,2.28-1.46,2.82C2461.58,2269.2,2459.39,2270.14,2457.29,2271.23z"/>
	<path class="st38" d="M2310.36,2545.87c-3.01,2.13-5.95,4.39-9.1,6.29c-0.73,0.44-2.22-0.4-3.35-0.66
		c0.28-1.13,0.22-2.58,0.92-3.33c2.09-2.24,4.47-4.2,6.74-6.27c0,0,1.75-0.16,1.75-0.16c0.97,0.69,1.8,1.51,2.51,2.46
		C2309.82,2544.19,2310.36,2545.87,2310.36,2545.87z"/>
	<path class="st39" d="M2227.68,2312.09c1.79,1.5,3.72,2.87,5.3,4.57c0.67,0.72,1.05,2.35,0.69,3.17c-0.3,0.68-1.98,1.19-2.92,1.04
		c-2.99-0.48-5.76-1.57-7.37-4.44C2224.81,2314.98,2226.25,2313.54,2227.68,2312.09z"/>
	<path class="st40" d="M2818.38,2406.61c-2.56,2.86-5.81,4.14-9.57,3.82c-0.9-0.08-1.8-1.02-2.5-1.75c-0.2-0.21,0.1-1.35,0.48-1.6
		c2.43-1.62,4.95-3.12,7.44-4.65C2815.6,2403.82,2816.99,2405.22,2818.38,2406.61z"/>
	<path class="st41" d="M2674.78,2331.68c1.61-1.62,3.22-3.24,4.84-4.85c4.23,1.81,8.47,6.97,6.26,9.18
		C2681.91,2339.96,2677.9,2335.03,2674.78,2331.68z"/>
	<path class="st42" d="M2749.88,2609.92c-0.2-1.06-0.25-2.12-0.15-3.19c1.78-1.69,3.56-3.37,5.35-5.06
		c2.17,1.28,3.27,3.35,3.29,5.69c0.02,3.41-1.26,5.55-5.22,3.67C2752.11,2610.54,2750.97,2610.28,2749.88,2609.92z"/>
	<path class="st43" d="M2806.38,2387.03c2.07-1.12,4.04-2.52,6.23-3.27c1.6-0.55,3.67-0.09,4.22,1.83c0.22,0.79-0.79,2.28-1.64,2.95
		c-1.38,1.09-3.08,1.76-4.65,2.61C2809.15,2389.78,2807.77,2388.41,2806.38,2387.03z"/>
	<path class="st44" d="M2302.92,2368.84c-0.81-2.16-2.09-3.82-4.55-4.2c1.06-1.32,1.96-2.83,3.24-3.88c0.77-0.62,2.99-0.91,3.1-0.66
		c0.68,1.45,1.51,3.23,1.18,4.64C2305.54,2366.26,2303.97,2367.49,2302.92,2368.84z"/>
	<path class="st45" d="M2713.72,2364.7c-2.07,0.12-4.14,0.23-6.21,0.34c-1.82-1.03-2.32-2.73-1.28-4.3c1.19-1.78,3.05-0.97,4.3,0.09
		C2711.78,2361.91,2712.67,2363.4,2713.72,2364.7z"/>
	<path class="st28" d="M2339.87,2522.95c-1.3,3.4-3.79,4.42-7.2,3.57C2334.09,2523.35,2336.72,2522.64,2339.87,2522.95z"/>
	<path class="st26" d="M2539.26,2398.74c0.3-3.12,1.45-5.81,3.93-7.83C2543.55,2394.36,2543.1,2397.4,2539.26,2398.74z"/>
	<path class="st36" d="M2441.75,2271.14c-1.53,3.22-4.15,4.17-7.5,3.61C2435.91,2271.8,2438.35,2270.47,2441.75,2271.14z"/>
	<path class="st46" d="M2314.23,2535.64c-0.51,1.78-1.7,2.72-3.54,2.83C2311.15,2536.62,2312.28,2535.62,2314.23,2535.64z"/>
	<path class="st46" d="M2310.36,2538.73c0.21,0.91,0.31,1.84,0.29,2.77c-0.37,0.66-0.75,1.32-1.12,1.99c-0.65-0.4-1.29-0.8-1.94-1.2
		c-0.66-0.23-1.34-0.36-2.04-0.39C2307.16,2540.84,2308.76,2539.78,2310.36,2538.73z"/>
	<path class="st46" d="M2317.79,2540.99c0.72-1.79,2.04-2.44,3.9-2.05C2320.85,2540.52,2319.66,2541.39,2317.79,2540.99z"/>
	<path class="st36" d="M2446.13,2278.97c0.23-2.27,1.43-3.48,3.75-3.48C2449.59,2277.7,2448.29,2278.8,2446.13,2278.97z"/>
	<path class="st46" d="M2310.66,2541.5c1.17,0.17,2.3,0.48,3.39,0.95c-1.23,1.14-2.46,2.28-3.69,3.42c0,0-0.37-1.57-0.37-1.57
		c0.01-0.71,0.02-1.42,0.03-2.13L2310.66,2541.5z"/>
	<path class="st47" d="M2694.53,2237.76c-1.44-1.48-2.88-2.96-4.32-4.44c1.66-4.23,4.59-7.31,9.45-10.53
		C2701.16,2229.64,2697.49,2233.59,2694.53,2237.76z"/>
	<path class="st48" d="M2720.43,2248.38c1.18-1.09,2.24-2.38,3.6-3.16c0.57-0.33,1.77,0.43,2.68,0.7c-0.43,0.86-0.86,1.72-1.3,2.57
		c-1.48,0.72-3.04,1.2-4.66,1.49L2720.43,2248.38z"/>
	<path class="st49" d="M2720.75,2249.98c1.55-0.5,3.1-0.99,4.66-1.49c-1.57,1.93-3.15,3.87-4.73,5.8
		C2720.69,2252.86,2720.72,2251.42,2720.75,2249.98z"/>
	<path class="st50" d="M2289.89,2237.09c-4.59,0.22-10.27-7.34-8.63-11.68c0.39-1.04,1.4-2.14,2.4-2.6
		c3.78-1.72,7.27-1.02,9.74,2.37c2.42,3.31,2.43,6.84-0.47,9.97C2292.13,2236.01,2290.91,2236.46,2289.89,2237.09z"/>
	<path class="st51" d="M2466.76,2160.48c5.56,3.66,5.7,9.37,6.25,14.84c0.31,3.14-2.53,5.33-6.07,5.09c-2.94-0.2-4.9-1.9-4.38-4.58
		C2463.55,2170.68,2462.8,2164.93,2466.76,2160.48z"/>
	<path class="st52" d="M2649.48,2207.68c-0.46,4.22-1.78,7.47-7.02,5.73c-3.84-1.27-5.28-3.94-3.44-6.96
		c1.59-2.62,3.86-4.83,5.83-7.22C2652.08,2198.93,2650.84,2203.27,2649.48,2207.68z"/>
	<path class="st53" d="M2649.48,2207.68c-0.95-3.14-0.73-6.93-4.63-8.45c1.05-1.47,1.91-3.15,3.22-4.34
		c0.75-0.68,2.49-1.11,3.27-0.7c0.78,0.41,1.18,2.01,1.28,3.12C2652.94,2201.15,2651.75,2204.6,2649.48,2207.68z"/>
	<path class="st54" d="M2763.72,2292.62c-3.45-0.26-7.51-4.52-7.07-7.4c0.71-4.67,8.17-10.16,12.32-8.69
		c3.2,1.13,4.57,4.08,4.6,7.37C2773.62,2288.93,2768.88,2293.02,2763.72,2292.62z"/>
	<path class="st55" d="M2310.02,2542.17c-0.01,0.71-0.03,1.43-0.03,2.14c-1.73,0.43-2.96,0.26-2.39-2.02
		C2308.4,2542.25,2309.21,2542.21,2310.02,2542.17z"/>
</g>
</svg>
